# File created by Blade
# Date/Time:  Thu Sep 25 17:43:48 2014
# Frame Rate: 120.000 fps
#------------------------------------------------------
:FULLY-SPECIFIED
:DEGREES
368
root -22.377468 32.944098 -6.355364 -353.421904 10.918430 -1.418299
Spine -1.643401 10.174336 -0.604720
Head 8.756284 26.095569 10.881089
LeftShoulder -13.793796 20.105180 23.840718
LeftArm 25.346169 -19.018843 -27.610225
LeftForeArm 7.213977 -0.000000 19.719119
LeftHand -27.407312 -0.000000 1.395415
LeftHandThumb1 -26.253704 0.000000 33.147579
RightShoulder -16.604616 11.204890 -31.888601
RightArm -12.171711 -0.546181 47.103689
RightForeArm -26.903052 -0.000000 25.513510
RightHand -11.457410 -0.000000 2.824414
RightHandThumb1 -24.326973 -0.000000 -32.862282
LeftUpLeg -6.725303 -9.192304 4.469284
LeftLeg 0.645586 -0.000000 -0.000000
LeftFoot -14.879890 16.916114 333.918503
LeftToeBase 2.702333 -0.000000 -0.000000
RightUpLeg -18.682138 -9.554711 2.065306
RightLeg 36.206470 -0.000000 -0.000000
RightFoot -21.262160 -14.024211 2.834165
RightToeBase -0.013165 -0.000000 0.000000
369
root -22.324600 32.963719 -6.338617 -353.498504 11.080376 -1.661690
Spine -1.712583 10.102430 -0.403208
Head 9.079469 25.968675 10.859238
LeftShoulder -14.025503 19.951911 24.045530
LeftArm 25.105050 -19.738257 -26.918405
LeftForeArm 7.564019 -0.000000 19.953949
LeftHand -27.667203 -0.000000 1.971896
LeftHandThumb1 -26.253704 0.000000 33.147579
RightShoulder -16.644951 11.274489 -32.270803
RightArm -12.267072 0.024247 46.160011
RightForeArm -27.256346 -0.000000 25.860212
RightHand -11.851418 -0.000000 2.578087
RightHandThumb1 -24.326973 -0.000000 -32.862282
LeftUpLeg -6.527800 -9.426867 4.662922
LeftLeg 0.358940 -0.000000 -0.000000
LeftFoot -14.961549 16.909902 333.689778
LeftToeBase 2.835437 -0.000000 -0.000000
RightUpLeg -18.233005 -8.902687 2.776604
RightLeg 34.965302 -0.000000 -0.000000
RightFoot -21.071250 -12.346258 2.148571
RightToeBase -0.564463 -0.000000 0.000000
370
root -22.272016 32.981349 -6.323853 -353.540746 11.292544 -1.866399
Spine -1.803182 9.974084 -0.220654
Head 9.351744 25.837013 10.778885
LeftShoulder -14.228868 19.790994 24.329358
LeftArm 24.834076 -20.192796 -26.329366
LeftForeArm 8.248065 -0.000000 20.224654
LeftHand -28.190803 -0.000000 3.102225
LeftHandThumb1 -26.253704 0.000000 33.147579
RightShoulder -16.663356 11.381119 -32.716022
RightArm -12.445000 0.654045 45.303745
RightForeArm -27.526713 -0.000000 26.179678
RightHand -12.106356 -0.000000 2.314696
RightHandThumb1 -24.326973 -0.000000 -32.862282
LeftUpLeg -6.394607 -9.637350 4.825028
LeftLeg 0.125185 -0.000000 -0.000000
LeftFoot -15.042707 16.754587 333.334567
LeftToeBase 2.812395 -0.000000 -0.000000
RightUpLeg -17.794725 -8.532892 3.480129
RightLeg 33.552762 -0.000000 -0.000000
RightFoot -21.015873 -10.568287 2.521056
RightToeBase -1.177436 -0.000000 0.000000
371
root -22.217326 32.998188 -6.306956 -353.600410 11.511123 -2.035845
Spine -1.863351 9.859843 -0.084712
Head 9.631542 25.696363 10.759109
LeftShoulder -14.406035 19.651154 24.623080
LeftArm 24.574249 -20.765074 -25.822246
LeftForeArm 8.887276 0.000000 20.473100
LeftHand -28.452956 -0.000000 3.625832
LeftHandThumb1 -26.253704 0.000000 33.147579
RightShoulder -16.722682 11.577661 -33.075797
RightArm -12.611417 1.213728 44.344331
RightForeArm -27.910939 -0.000000 26.461461
RightHand -12.366029 -0.000000 2.271636
RightHandThumb1 -24.326973 -0.000000 -32.862282
LeftUpLeg -6.214040 -9.857419 4.939186
LeftLeg -0.163537 -0.000000 0.000000
LeftFoot -15.012040 16.731338 333.247113
LeftToeBase 2.539763 -0.000000 -0.000000
RightUpLeg -17.290646 -8.129507 4.109107
RightLeg 32.036591 -0.000000 -0.000000
RightFoot -20.877055 -9.089567 2.915605
RightToeBase -1.446988 -0.000000 0.000000
372
root -22.162230 33.012481 -6.290742 -353.671433 11.791563 -2.174542
Spine -1.894181 9.731481 0.048887
Head 9.884011 25.512762 10.706549
LeftShoulder -14.546866 19.587314 24.879378
LeftArm 24.417165 -21.350922 -25.344016
LeftForeArm 9.347968 -0.000000 20.652924
LeftHand -28.889032 0.000000 3.928897
LeftHandThumb1 -26.253704 0.000000 33.147579
RightShoulder -16.770049 11.688112 -33.461310
RightArm -12.803397 1.681841 43.470568
RightForeArm -28.050647 -0.000000 26.715670
RightHand -12.566000 -0.000000 1.829458
RightHandThumb1 -24.326973 -0.000000 -32.862282
LeftUpLeg -6.066672 -10.026722 5.016811
LeftLeg -0.358870 -0.000000 0.000000
LeftFoot -14.983919 16.635921 333.184783
LeftToeBase 2.307174 -0.000000 -0.000000
RightUpLeg -16.738095 -7.830488 4.661720
RightLeg 30.472533 -0.000000 -0.000000
RightFoot -20.764301 -7.876082 3.072416
RightToeBase -1.590191 -0.000000 0.000000
373
root -22.101193 33.026334 -6.277589 -353.700879 12.071921 -2.291700
Spine -1.962049 9.605965 0.191264
Head 10.128788 25.339340 10.642937
LeftShoulder -14.685306 19.495037 25.077046
LeftArm 24.239755 -21.892184 -24.853237
LeftForeArm 9.765101 0.000000 20.798019
LeftHand -29.295171 0.000000 4.064998
LeftHandThumb1 -26.253704 0.000000 33.147579
RightShoulder -16.849566 11.776085 -33.874145
RightArm -12.915351 2.269043 42.635001
RightForeArm -28.221227 0.000000 26.882760
RightHand -12.612774 0.000000 1.468068
RightHandThumb1 -24.326973 -0.000000 -32.862282
LeftUpLeg -5.978376 -10.109526 5.052750
LeftLeg -0.525569 -0.000000 0.000000
LeftFoot -14.952055 16.561303 333.142742
LeftToeBase 2.194540 -0.000000 -0.000000
RightUpLeg -16.194739 -7.605836 5.140246
RightLeg 28.823560 -0.000000 -0.000000
RightFoot -20.692939 -6.888425 3.353691
RightToeBase -1.554434 -0.000000 0.000000
